<svg width="32" height="32" viewBox="0 0 32 32" fill="none" xmlns="http://www.w3.org/2000/svg">
<path id="Vector" d="M6.73684 32H1.68421C1.23753 32 0.809144 31.8226 0.493294 31.5067C0.177443 31.1909 0 30.7625 0 30.3158V16.8421C0 16.3954 0.177443 15.967 0.493294 15.6512C0.809144 15.3353 1.23753 15.1579 1.68421 15.1579H6.73684C7.18352 15.1579 7.61191 15.3353 7.92776 15.6512C8.24361 15.967 8.42105 16.3954 8.42105 16.8421V30.3158C8.42105 30.7625 8.24361 31.1909 7.92776 31.5067C7.61191 31.8226 7.18352 32 6.73684 32ZM18.5263 32H13.4737C13.027 32 12.5986 31.8226 12.2828 31.5067C11.9669 31.1909 11.7895 30.7625 11.7895 30.3158V1.68421C11.7895 1.23753 11.9669 0.809144 12.2828 0.493294C12.5986 0.177443 13.027 0 13.4737 0H18.5263C18.973 0 19.4014 0.177443 19.7172 0.493294C20.0331 0.809144 20.2105 1.23753 20.2105 1.68421V30.3158C20.2105 30.7625 20.0331 31.1909 19.7172 31.5067C19.4014 31.8226 18.973 32 18.5263 32ZM30.3158 32H25.2632C24.8165 32 24.3881 31.8226 24.0722 31.5067C23.7564 31.1909 23.5789 30.7625 23.5789 30.3158V11.7895C23.5789 11.3428 23.7564 10.9144 24.0722 10.5986C24.3881 10.2827 24.8165 10.1053 25.2632 10.1053H30.3158C30.7625 10.1053 31.1909 10.2827 31.5067 10.5986C31.8226 10.9144 32 11.3428 32 11.7895V30.3158C32 30.7625 31.8226 31.1909 31.5067 31.5067C31.1909 31.8226 30.7625 32 30.3158 32Z" fill="black"/>
</svg>
