<svg width="275" height="50" viewBox="0 0 275 50" fill="none" xmlns="http://www.w3.org/2000/svg">
<path d="M3.04618e-05 29.5L10.3918 23.1424C17.7963 18.5764 32.6054 9.20139 47.4144 7.41319C62.2234 5.55555 77.0325 11.1111 91.8415 15.7465C106.651 20.3125 121.46 24.1319 136.269 21.3021C151.078 18.5764 165.887 9.20139 180.696 11.1111C195.505 13.0208 210.314 25.8681 225.123 25.9201C239.932 25.8681 254.741 13.0208 262.145 6.47569L271.036 0L272.523 5.97826L273.514 12.5L274.505 19.0217L275 25.5435V33.5L272.523 41L273.514 45.5V50H262.145C254.741 50 239.932 50 225.123 50C210.314 50 195.505 50 180.696 50C165.887 50 151.078 50 136.269 50C121.46 50 106.651 50 91.8415 50C77.0325 50 62.2234 50 47.4144 50C32.6054 50 17.7963 50 10.3918 50H2.49184L1.99637 44.5652V38.587V32.0652L3.04618e-05 29.5Z" fill="#71ACDF"/>
</svg>
